<?xml version="1.0" standalone="no"?>
<!DOCTYPE svg PUBLIC "-//W3C//DTD SVG 20010904//EN"
 "http://www.w3.org/TR/2001/REC-SVG-20010904/DTD/svg10.dtd">
<svg version="1.0" xmlns="http://www.w3.org/2000/svg"
 width="840.000000pt" height="475.000000pt" viewBox="0 0 840.000000 475.000000"
 preserveAspectRatio="xMidYMid meet">

<g transform="translate(0.000000,475.000000) scale(0.100000,-0.100000)"
fill="#dd5145" stroke="none">
<path d="M2981 4321 c-11 -7 -11 -20 -2 -75 7 -37 9 -71 6 -75 -2 -5 -22 -12
-42 -15 -88 -15 -93 -17 -93 -38 0 -18 4 -19 53 -12 104 15 100 18 115 -63 15
-75 17 -79 41 -64 11 7 12 20 1 74 -12 68 -9 87 15 87 8 0 37 5 65 11 40 9 50
15 50 31 0 18 -4 20 -37 14 -21 -3 -56 -9 -79 -12 l-41 -6 -12 76 c-13 77 -16
82 -40 67z"/>
<path d="M4720 3845 c0 -96 2 -175 5 -175 3 0 73 34 157 76 l151 76 -149 99
c-82 54 -152 99 -156 99 -5 0 -8 -79 -8 -175z m145 55 c58 -39 105 -73 105
-75 0 -5 -215 -115 -225 -115 -3 0 -5 59 -5 130 0 83 4 130 10 130 6 0 58 -32
115 -70z"/>
<path d="M5264 3944 c-93 -46 -60 -194 43 -194 47 0 81 22 99 65 19 46 2 100
-39 125 -38 24 -62 25 -103 4z m96 -44 c42 -42 11 -113 -50 -113 -22 0 -39 7
-52 22 -23 30 -23 52 3 85 25 32 70 35 99 6z"/>
<path d="M3648 3785 c-36 -20 -48 -44 -48 -95 0 -30 6 -47 24 -65 69 -69 176
-27 176 69 0 60 -30 96 -85 102 -25 3 -50 -1 -67 -11z m106 -47 c34 -48 4
-108 -54 -108 -58 0 -88 60 -54 108 11 16 25 22 54 22 29 0 43 -6 54 -22z"/>
<path d="M4095 3399 c-246 -36 -448 -183 -556 -406 -36 -74 -56 -148 -75 -275
l-5 -38 -97 0 c-116 0 -167 -12 -188 -45 -12 -19 -23 -96 -41 -300 -23 -271
-24 -275 -5 -296 15 -15 29 -20 61 -17 55 4 57 21 4 32 -52 12 -51 -6 -23 296
11 118 20 223 20 233 0 9 9 26 20 37 18 18 33 20 135 20 102 0 117 2 135 20
11 11 20 33 20 50 0 114 70 296 155 402 133 169 357 268 574 255 185 -11 313
-69 447 -202 124 -124 181 -236 204 -405 15 -111 28 -120 174 -120 81 0 117
-4 124 -13 11 -13 183 -1865 175 -1880 -2 -4 -526 -7 -1164 -7 -920 0 -1159 3
-1159 13 0 6 10 124 22 260 l22 249 37 -6 c26 -4 40 -2 49 9 14 17 9 19 -50
29 -65 11 -67 5 -90 -234 -28 -307 -28 -329 -5 -346 16 -12 201 -14 1176 -14
1115 0 1158 1 1180 19 l23 18 -86 949 -85 948 -27 23 c-25 21 -36 23 -140 23
-123 0 -136 5 -136 55 0 16 -9 67 -20 112 -70 293 -311 509 -615 553 -80 11
-107 11 -190 -1z"/>
<path d="M1870 3215 l0 -75 -75 0 c-73 0 -75 -1 -75 -25 0 -24 2 -25 75 -25
l75 0 0 -75 c0 -67 2 -75 19 -75 25 0 31 19 31 91 l0 59 75 0 c73 0 75 1 75
25 0 23 -3 24 -77 27 l-78 3 -3 73 c-3 64 -5 72 -22 72 -18 0 -20 -7 -20 -75z"/>
<path d="M4040 3124 c-140 -36 -274 -132 -353 -252 -79 -119 -90 -194 -31
-221 18 -8 178 -11 545 -11 l520 0 24 25 c33 32 31 63 -6 138 -79 158 -227
277 -396 321 -76 20 -228 20 -303 0z m265 -29 c114 -24 207 -75 290 -158 79
-78 138 -180 133 -225 l-3 -27 -529 0 c-621 0 -574 -10 -511 113 53 104 144
195 247 245 129 64 243 79 373 52z"/>
<path d="M2543 3003 c-62 -2 -113 -6 -113 -10 0 -10 183 -303 189 -303 7 0
151 299 151 313 0 4 -26 6 -57 5 -32 -1 -109 -4 -170 -5z m187 -27 c0 -9 -109
-236 -113 -236 -11 0 -138 221 -132 230 6 9 245 15 245 6z"/>
<path d="M6256 2902 c-2 -4 -13 -37 -25 -74 l-22 -66 -69 23 c-71 24 -80 23
-80 -5 0 -12 18 -22 61 -35 34 -10 63 -25 66 -32 3 -7 -4 -41 -16 -75 -16 -48
-18 -64 -8 -70 22 -14 26 -9 48 62 26 78 25 78 109 50 30 -10 59 -14 64 -10
17 16 -2 36 -45 49 -23 7 -53 17 -65 22 l-23 8 24 72 c14 40 25 73 25 75 0 6
-41 11 -44 6z"/>
<path d="M1510 2478 c-77 -22 -131 -114 -110 -188 22 -78 76 -120 155 -120 93
0 155 62 155 156 0 106 -99 181 -200 152z m108 -48 c67 -41 78 -135 23 -191
-81 -81 -219 -15 -208 99 10 93 105 140 185 92z"/>
<path d="M2977 2023 c-20 -8 -37 -21 -37 -28 0 -22 15 -26 36 -10 10 8 26 15
35 15 20 0 33 27 16 33 -7 3 -29 -2 -50 -10z"/>
<path d="M3333 2003 c-20 -7 1 -35 41 -57 39 -21 57 -15 40 12 -15 22 -66 51
-81 45z"/>
<path d="M2818 1893 c-26 -40 -27 -66 -3 -56 16 6 55 64 55 82 0 24 -28 9 -52
-26z"/>
<path d="M3466 1854 c-7 -19 24 -84 40 -84 21 0 23 13 7 52 -16 40 -38 55 -47
32z"/>
<path d="M3111 1817 c-57 -29 -83 -120 -67 -231 14 -89 87 -137 155 -102 47
25 64 68 65 161 0 102 -19 150 -68 170 -43 18 -54 18 -85 2z m95 -38 c16 -18
19 -37 19 -129 0 -92 -3 -111 -19 -129 -23 -25 -77 -28 -100 -6 -47 47 -47
223 0 270 23 22 77 19 100 -6z"/>
<path d="M2749 1723 c-13 -35 -8 -68 11 -68 9 0 17 13 20 35 10 61 -11 84 -31
33z"/>
<path d="M3516 1658 c-12 -36 -11 -79 1 -89 16 -14 25 7 27 58 1 35 -20 58
-28 31z"/>
<path d="M3827 1622 c-49 -54 17 -127 83 -92 26 14 34 57 15 86 -19 30 -74 33
-98 6z"/>
<path d="M4567 1622 c-37 -40 -9 -102 46 -102 14 0 33 7 41 16 19 18 21 75 4
92 -18 18 -73 14 -91 -6z"/>
<path d="M2766 1544 c-6 -17 29 -94 43 -94 18 0 17 26 -1 68 -20 44 -32 52
-42 26z"/>
<path d="M817 1492 c-22 -25 -22 -75 1 -95 10 -9 32 -20 49 -23 26 -5 37 -1
57 19 30 30 33 62 10 95 -20 29 -93 31 -117 4z"/>
<path d="M1216 1494 c-23 -23 -20 -77 5 -100 20 -18 45 -19 473 -22 540 -4
790 3 811 25 8 8 15 30 15 48 0 69 37 65 -660 65 -558 0 -630 -2 -644 -16z"/>
<path d="M5923 1490 c-50 -20 -54 -102 -6 -121 32 -12 1224 -12 1256 0 46 18
46 99 1 120 -30 13 -1217 15 -1251 1z"/>
<path d="M7482 1484 c-28 -20 -31 -83 -4 -107 26 -24 83 -22 110 3 65 61 -32
156 -106 104z"/>
<path d="M402 1480 c-46 -7 -62 -21 -62 -57 0 -37 36 -53 121 -53 61 0 79 4
92 18 20 22 22 52 5 74 -15 19 -95 28 -156 18z"/>
<path d="M3443 1445 c-27 -40 -29 -55 -9 -55 17 0 56 51 56 74 0 27 -24 18
-47 -19z"/>
<path d="M7885 1463 c-32 -9 -45 -24 -45 -54 0 -50 21 -60 113 -53 45 3 88 7
95 10 13 4 17 80 4 88 -12 7 -145 15 -167 9z"/>
<path d="M2880 1377 c0 -18 56 -67 76 -67 26 0 14 25 -24 50 -49 33 -52 34
-52 17z"/>
<path d="M3293 1323 c-54 -27 -41 -61 14 -38 38 16 64 55 36 54 -10 0 -33 -8
-50 -16z"/>
<path d="M4138 1306 c-86 -23 -118 -59 -94 -108 15 -30 54 -34 111 -13 31 12
65 16 118 14 62 -4 82 -9 126 -37 58 -35 91 -40 115 -16 34 33 19 74 -42 113
-91 57 -225 76 -334 47z"/>
<path d="M1195 1123 c-31 -8 -83 -51 -100 -83 -36 -70 -5 -169 65 -209 100
-56 221 5 236 120 14 108 -92 198 -201 172z m105 -49 c86 -51 76 -182 -17
-221 -96 -40 -199 65 -159 161 28 66 115 96 176 60z"/>
<path d="M1886 1037 c-24 -18 -25 -76 -1 -93 24 -18 155 -19 179 -1 21 15 24
70 6 92 -16 19 -158 21 -184 2z"/>
<path d="M2276 1034 c-9 -8 -16 -28 -16 -44 0 -60 1 -60 339 -60 286 0 309 1
324 18 24 26 22 79 -2 92 -12 6 -134 10 -325 10 -264 0 -307 -2 -320 -16z"/>
<path d="M5545 1033 c-82 -7 -109 -50 -60 -99 l25 -25 306 3 c289 3 306 4 320
22 19 27 18 49 -5 77 -19 23 -19 23 -277 25 -143 1 -281 0 -309 -3z"/>
<path d="M6365 1034 c-46 -12 -60 -69 -25 -104 16 -16 33 -20 88 -20 80 0 112
17 112 59 0 48 -20 63 -91 66 -35 2 -73 1 -84 -1z"/>
<path d="M972 518 c-7 -7 -12 -27 -12 -45 0 -40 21 -53 85 -53 65 0 85 13 85
55 0 24 -6 38 -19 45 -27 14 -124 13 -139 -2z"/>
<path d="M1442 514 c-28 -20 -28 -58 0 -78 33 -24 583 -24 616 0 27 18 29 55
4 77 -16 15 -53 17 -308 17 -246 0 -293 -2 -312 -16z"/>
<path d="M7317 513 c-36 -6 -55 -43 -39 -77 20 -44 140 -48 162 -6 14 26 13
55 -2 68 -16 12 -84 21 -121 15z"/>
<path d="M6342 498 c-17 -17 -15 -63 5 -79 12 -11 78 -15 300 -17 246 -3 288
-1 309 13 26 17 33 62 12 83 -17 17 -609 17 -626 0z"/>
</g>
</svg>
