<?xml version="1.0" standalone="no"?>
<!DOCTYPE svg PUBLIC "-//W3C//DTD SVG 20010904//EN"
 "http://www.w3.org/TR/2001/REC-SVG-20010904/DTD/svg10.dtd">
<svg version="1.0" xmlns="http://www.w3.org/2000/svg"
 width="757.000000pt" height="628.000000pt" viewBox="0 0 757.000000 628.000000"
 preserveAspectRatio="xMidYMid meet">

<g transform="translate(0.000000,628.000000) scale(0.100000,-0.100000)"
fill="#000000" stroke="none">
<path d="M200 6236 c0 -4 198 -115 620 -348 135 -75 533 -295 885 -490 352
-195 719 -398 816 -451 l175 -97 1107 0 1107 0 328 171 c681 357 853 450 847
460 -3 3 -30 9 -62 13 -32 3 -89 10 -128 16 -38 5 -250 32 -470 60 -220 28
-467 60 -550 71 -82 10 -400 51 -705 89 -305 39 -679 87 -830 106 -306 39
-1060 135 -1960 248 -327 42 -647 82 -710 90 -63 9 -189 25 -280 36 -91 12
-171 23 -177 25 -7 2 -13 3 -13 1z"/>
<path d="M7090 5777 c-85 -46 -238 -128 -340 -182 -102 -54 -257 -137 -345
-185 -88 -47 -355 -192 -593 -321 l-433 -234 450 -3 451 -2 0 -106 c0 -62 4
-104 9 -102 6 2 103 120 216 263 113 143 324 408 468 589 292 367 291 366 280
366 -4 0 -78 -38 -163 -83z"/>
<path d="M1320 5404 c0 -3 81 -190 221 -512 l18 -43 353 2 c194 0 357 3 361 6
9 5 -110 74 -528 308 -126 70 -274 154 -327 186 -54 31 -98 56 -98 53z"/>
<path d="M1320 4010 l0 -710 2415 0 2415 0 0 710 0 710 -2415 0 -2415 0 0
-710z m780 35 l0 -405 -115 0 -115 0 0 65 0 65 -58 0 c-70 0 -85 -10 -110 -75
l-20 -50 -121 -3 c-66 -1 -121 0 -121 4 0 9 380 777 392 792 7 8 48 12 139 12
l129 0 0 -405z m623 382 c51 -22 77 -68 77 -137 0 -30 -4 -61 -8 -68 -6 -9
-36 -12 -113 -10 l-104 3 -3 32 c-5 47 -23 58 -56 32 -33 -26 -35 -68 -3 -96
12 -12 56 -41 98 -67 41 -25 83 -54 94 -66 61 -67 15 -264 -81 -349 -54 -47
-140 -73 -245 -74 -95 -1 -162 18 -199 55 -35 35 -45 78 -33 149 l8 54 40 3
c22 2 72 1 112 -3 l72 -7 -1 -34 c-1 -19 4 -40 10 -46 17 -17 60 1 86 35 19
26 19 30 6 55 -9 16 -56 51 -110 84 -115 69 -133 95 -127 183 11 149 105 252
260 285 58 12 175 5 220 -13z m675 14 c11 -7 10 -19 -3 -67 -28 -96 -36 -104
-106 -104 -60 0 -60 0 -75 -36 -8 -20 -45 -162 -82 -315 l-66 -279 -100 0
c-56 0 -108 4 -115 9 -16 10 -14 21 84 439 20 85 34 160 31 168 -4 10 -23 14
-65 14 -33 0 -63 5 -66 11 -4 5 1 42 10 80 13 53 23 73 39 79 27 11 497 12
514 1z m436 -1 c23 -5 54 -23 75 -45 l36 -35 0 -108 c-1 -116 -20 -225 -61
-346 -66 -199 -167 -281 -344 -280 -92 0 -166 24 -206 65 -25 26 -29 39 -32
104 -5 85 15 194 60 335 64 201 129 279 255 309 51 12 169 13 217 1z m675 -8
c56 -28 76 -64 75 -135 0 -78 -32 -153 -85 -202 -21 -20 -39 -40 -39 -45 0 -5
10 -28 22 -51 l21 -41 -27 -147 c-16 -80 -30 -152 -32 -158 -5 -20 -213 -18
-220 2 -6 15 2 72 30 199 17 77 9 116 -24 116 -31 0 -47 -36 -83 -185 l-34
-140 -112 -3 c-85 -2 -113 0 -116 11 -3 7 33 170 80 362 109 447 102 423 123
428 9 3 100 5 202 6 158 1 190 -2 219 -17z m429 9 c16 -10 11 -39 -63 -346
-25 -104 -46 -215 -48 -245 -2 -53 -1 -55 23 -55 18 0 29 9 41 33 10 18 50
166 90 327 l74 295 97 0 c108 0 128 -5 128 -29 0 -28 -107 -449 -136 -536 -68
-205 -120 -249 -306 -260 -85 -5 -180 14 -211 43 -62 55 -62 117 -2 367 25
105 58 241 72 303 l27 112 100 0 c56 0 107 -4 114 -9z m685 -33 c4 -24 9 -94
13 -156 4 -69 10 -110 16 -104 5 5 24 71 43 147 19 76 37 140 40 144 10 9 215
14 215 5 0 -11 -167 -683 -186 -751 l-15 -53 -123 0 -123 0 -6 138 c-10 221
-17 225 -63 38 -45 -184 -38 -176 -170 -176 -73 0 -84 2 -84 18 1 44 189 775
201 783 8 5 64 9 125 9 l112 0 5 -42z"/>
<path d="M1867 4153 c-2 -4 -19 -52 -37 -106 -21 -64 -29 -102 -23 -108 6 -6
32 -9 59 -7 l49 3 0 110 c0 105 -1 110 -22 113 -11 2 -23 0 -26 -5z"/>
<path d="M3677 4279 c-26 -15 -52 -72 -85 -189 -64 -224 -72 -300 -32 -300 41
0 78 87 131 306 39 160 35 211 -14 183z"/>
<path d="M4260 4296 c-5 -14 -19 -57 -31 -97 -21 -70 -21 -73 -4 -86 30 -21
41 -16 89 45 50 62 58 100 30 140 -22 32 -71 30 -84 -2z"/>
<path d="M2310 3162 c0 -5 22 -58 49 -118 26 -60 94 -215 151 -344 57 -129
199 -453 317 -720 118 -267 343 -775 500 -1130 157 -355 287 -647 289 -649 2
-2 4 665 4 1482 l0 1487 -655 0 c-360 0 -655 -4 -655 -8z"/>
<path d="M3832 2390 c3 -615 6 -782 16 -792 16 -16 -7 -43 405 476 175 221
436 549 580 729 144 181 268 337 276 348 13 19 1 19 -634 19 l-647 0 4 -780z"/>
</g>
</svg>
