<?xml version="1.0" standalone="no"?>
<!DOCTYPE svg PUBLIC "-//W3C//DTD SVG 20010904//EN"
 "http://www.w3.org/TR/2001/REC-SVG-20010904/DTD/svg10.dtd">
<svg version="1.0" xmlns="http://www.w3.org/2000/svg"
 width="222.000000pt" height="227.000000pt" viewBox="0 0 222.000000 227.000000"
 preserveAspectRatio="xMidYMid meet">

<g transform="translate(0.000000,227.000000) scale(0.100000,-0.100000)"
fill="#dd5145" stroke="none">
<path d="M780 1409 c-25 -11 -56 -30 -68 -42 -29 -27 -72 -109 -72 -137 0 -18
-6 -20 -60 -20 -50 0 -60 -3 -60 -17 0 -10 -7 -126 -15 -258 -8 -132 -15 -245
-15 -251 0 -7 -33 -14 -87 -18 -100 -8 -242 -23 -290 -31 -21 -4 -33 -12 -33
-22 0 -12 7 -14 33 -10 32 6 164 20 305 32 l74 6 -7 -65 -7 -66 401 0 401 0 0
66 0 65 88 -7 c48 -3 136 -12 195 -18 101 -11 132 -7 111 14 -5 5 -98 17 -206
27 l-198 17 -1 46 c-1 25 -6 144 -12 265 l-12 220 -60 5 c-56 5 -60 6 -65 35
-15 70 -75 141 -142 169 -53 22 -143 20 -198 -5z m190 -41 c52 -27 97 -80 106
-126 l7 -32 -203 0 -202 0 6 28 c11 46 59 104 105 129 57 30 123 30 181 1z
m-330 -239 c0 -22 5 -29 20 -29 16 0 20 7 20 33 l0 32 203 0 202 0 3 -32 c2
-25 8 -33 23 -33 14 0 19 7 19 29 0 24 5 29 32 35 18 4 34 2 38 -4 6 -9 30
-427 34 -570 l1 -35 -352 -3 -353 -2 0 52 c1 85 29 548 34 556 3 5 21 6 40 4
32 -4 36 -7 36 -33z"/>
<path d="M720 821 c0 -24 25 -34 40 -16 15 18 5 35 -21 35 -12 0 -19 -7 -19
-19z"/>
<path d="M1000 820 c0 -16 5 -21 23 -18 12 2 22 10 22 18 0 8 -10 16 -22 18
-18 3 -23 -2 -23 -18z"/>
<path d="M882 734 c-27 -18 -30 -48 -4 -40 9 3 38 8 65 12 28 4 47 11 47 19 0
28 -73 34 -108 9z"/>
</g>
</svg>
